<svg width="37" height="37" viewBox="0 0 37 37" fill="none" xmlns="http://www.w3.org/2000/svg">
<g clip-path="url(#clip0_20_3501)">
<path d="M18.4981 37C28.7143 37 36.9962 28.7173 36.9962 18.5C36.9962 8.28274 28.7143 0 18.4981 0C8.28189 0 0 8.28274 0 18.5C0 28.7173 8.28189 37 18.4981 37ZM18.2091 28.9063C12.4624 28.9062 7.80389 24.2472 7.80389 18.5C7.80389 12.8495 12.307 8.25109 17.92 8.09797V8.09375H28.1324C28.6994 8.09375 29.1625 8.53902 29.1909 9.09896L29.1923 9.15374C29.1923 10.2879 28.3017 11.2139 27.1818 11.2706L27.0728 11.2734L26.3395 12.0068C27.7626 13.7868 28.6142 16.0437 28.6142 18.5C28.6142 24.2472 23.9557 28.9063 18.2091 28.9063ZM27.0728 11.2734H25.6954C25.9214 11.5075 26.1361 11.7524 26.3395 12.0068L27.0728 11.2734ZM18.2091 25.4375C22.0401 25.4375 25.1459 22.3315 25.1459 18.5C25.1459 14.6685 22.0401 11.5625 18.2091 11.5625C14.378 11.5625 11.2723 14.6685 11.2723 18.5C11.2723 22.3315 14.378 25.4375 18.2091 25.4375Z" fill="#1B1B1B"/>
</g>
<defs>
<clipPath id="clip0_20_3501">
<rect width="37" height="37" fill="white"/>
</clipPath>
</defs>
</svg>
