<svg width="162" height="49" viewBox="0 0 162 49" fill="none" xmlns="http://www.w3.org/2000/svg">
<g clip-path="url(#clip0_9_40)">
<path d="M24.5 49C38.031 49 49 38.031 49 24.5C49 10.969 38.031 0 24.5 0C10.969 0 0 10.969 0 24.5C0 38.031 10.969 49 24.5 49ZM24.1172 38.2813C16.506 38.2812 10.3359 32.1112 10.3359 24.5C10.3359 17.0169 16.3002 10.9271 23.7344 10.7243V10.7188H37.2603C38.0112 10.7188 38.6246 11.3084 38.6622 12.05L38.6641 12.1225C38.6641 13.6245 37.4845 14.8508 36.0012 14.9259L35.8569 14.9297L34.8857 15.9009C36.7705 18.2582 37.8984 21.2471 37.8984 24.5C37.8984 32.1112 31.7283 38.2813 24.1172 38.2813ZM35.8569 14.9297H34.0326C34.3318 15.2397 34.6162 15.564 34.8857 15.9009L35.8569 14.9297ZM24.1172 33.6875C29.1913 33.6875 33.3047 29.5741 33.3047 24.5C33.3047 19.4259 29.1913 15.3125 24.1172 15.3125C19.0431 15.3125 14.9297 19.4259 14.9297 24.5C14.9297 29.5741 19.0431 33.6875 24.1172 33.6875Z" fill="#1B1B1B"/>
<path d="M60.1536 15.7719L69.8801 27.9729V15.7719H72.6241V32.9219H70.5416L60.8151 20.8189V32.9219H58.0466V15.7719H60.1536ZM87.9064 27.8259H78.1064C78.3269 29.6634 79.8459 30.8639 82.0509 30.8639C83.2759 30.8639 84.8194 30.3984 85.5544 29.5654L87.1959 31.1579C85.9464 32.5299 83.8639 33.2159 82.0019 33.2159C78.0329 33.2159 75.4849 30.6924 75.4849 26.8214C75.4849 23.1464 78.0574 20.5249 81.8304 20.5249C85.7259 20.5249 88.3719 22.9014 87.9064 27.8259ZM78.1554 25.6944H85.4809C85.3339 23.7834 83.9374 22.7789 81.9039 22.7789C80.0664 22.7789 78.5474 23.7834 78.1554 25.6944ZM95.9432 20.5984C99.6672 20.5984 102.215 23.3424 102.215 26.8949C102.215 30.4719 99.7407 33.1669 95.9432 33.1669C92.1702 33.1669 89.7202 30.4719 89.7202 26.8949C89.7202 23.3424 92.1947 20.5984 95.9432 20.5984ZM95.9432 22.9259C93.6402 22.9259 92.2437 24.7634 92.2437 26.8949C92.2437 29.0509 93.6402 30.8149 95.9432 30.8149C98.2707 30.8149 99.6672 29.0509 99.6672 26.8949C99.6672 24.7634 98.1482 22.9259 95.9432 22.9259ZM117.504 18.1729L115.421 19.5694C114.613 18.3934 112.971 17.6829 111.183 17.6584C108.88 17.6584 107.214 18.6139 107.214 20.2554C107.214 21.9214 109.125 22.3869 111.379 22.7054C114.907 23.1954 118.263 24.1754 118.263 28.0219C118.239 31.8684 114.735 33.3139 111.158 33.3139C107.875 33.3139 105.352 32.3094 103.784 29.4184L105.842 28.0464C107.067 30.1289 109.198 30.8639 111.183 30.8639C113.241 30.8639 115.519 30.1779 115.519 28.0219C115.519 26.1599 113.535 25.5229 111.134 25.2044C107.728 24.7389 104.494 23.8814 104.494 20.2064C104.47 16.6539 108.022 15.2819 111.109 15.2819C113.584 15.2819 116.058 15.8699 117.504 18.1729ZM129.415 29.6634L131.13 31.3539C129.782 32.6769 128.288 33.2404 126.548 33.2404C123.069 33.2404 120.178 31.0599 120.178 26.8949C120.178 22.7299 123.045 20.5494 126.548 20.5494C128.214 20.5494 129.611 21.0639 130.909 22.3379L129.292 24.0284C128.533 23.2934 127.528 22.9504 126.573 22.9504C124.392 22.9504 122.702 24.4939 122.702 26.8949C122.702 29.4429 124.466 30.7904 126.548 30.7904C127.577 30.7904 128.631 30.4719 129.415 29.6634ZM142.72 22.7544L142.794 20.8434H145.244C145.244 24.8614 145.244 28.9039 145.244 32.9219H142.843L142.72 30.9619C141.912 32.5054 140.05 33.2404 138.555 33.2404C135.027 33.2649 132.357 30.9864 132.357 26.8704C132.357 22.8279 135.125 20.5739 138.604 20.5739C140.319 20.5739 141.961 21.3824 142.72 22.7544ZM138.8 22.8769C136.644 22.8769 134.88 24.3959 134.88 26.8704C134.88 29.3694 136.644 30.8884 138.8 30.8884C144.019 30.8884 144.019 22.8769 138.8 22.8769ZM160.378 32.9219H157.83V26.4539C157.83 24.3714 156.654 22.9749 154.572 22.9749C152.563 22.9749 151.191 24.6164 151.191 26.6009V32.9219H148.667V20.8189H150.97L151.117 22.5829C152.269 21.2844 153.616 20.6474 155.184 20.6474C158.124 20.6474 160.378 22.7299 160.378 26.4294V32.9219Z" fill="#1B1B1B"/>
</g>
<defs>
<clipPath id="clip0_9_40">
<rect width="161.93" height="49" fill="white"/>
</clipPath>
</defs>
</svg>
